# AST/ASF file generated using VICON BodyLanguage
# -----------------------------------------------
:version 1.10
:name VICON
:units
  mass 1.0
  length 0.45
  angle deg
:documentation
   .ast/.asf automatically generated from VICON data using
   VICON BodyBuilder and BodyLanguage model FoxedUp or BRILLIANT.MOD
:root
   order TX TY TZ RX RY RZ
   axis XYZ
   position 0 0 0  
   orientation 0 0 0 
:bonedata
  begin
     id 1 
     name lhipjoint
     direction 0.584852 -0.759097 0.285867 
     length 2.43633 
     axis 0 0 0  XYZ
  end
  begin
     id 2 
     name lfemur
     direction 0.34202 -0.939693 0  
     length 7.14704  
     axis 0 0 20  XYZ
    dof rx ry rz
    limits (-160.0 20.0)
           (-70.0 70.0)
           (-60.0 70.0)
  end
  begin
     id 3 
     name ltibia
     direction 0.342022 -0.939692 0   
     length 7.68483   
     axis 0 0 20   XYZ
    dof rx
    limits (-10.0 170.0)
  end
  begin
     id 4 
     name lfoot
     direction 0.0999605 -0.274639 0.956337   
     length 2.40452   
     axis -90 7.62852e-016 20   XYZ
    dof rx rz
    limits (-45.0 90.0)
           (-70.0 20.0)
  end
  begin
     id 5 
     name ltoes
     direction 1.53468e-011 -4.21881e-011 1   
     length 1.19837   
     axis -90 7.62852e-016 20   XYZ
    dof rx
    limits (-90.0 20.0)
  end
  begin
     id 6 
     name rhipjoint
     direction -0.569886 -0.769002 0.289597   
     length 2.40495  
     axis 0 0 0  XYZ 
  end
  begin
     id 7 
     name rfemur
     direction -0.34202 -0.939693 0   
     length 7.45086   
     axis 0 0 -20   XYZ
    dof rx ry rz
    limits (-160.0 20.0)
           (-70.0 70.0)
           (-70.0 60.0)
  end
  begin
     id 8 
     name rtibia
     direction -0.34202 -0.939693 0   
     length 7.76831   
     axis 0 0 -20   XYZ
    dof rx
    limits (-10.0 170.0)
 end
 begin
     id 9 
     name rfoot
     direction -0.0798572 -0.219406 0.97236   
     length 2.35911  
     axis -90 -7.62852e-016 -20   XYZ
    dof rx rz
    limits (-45.0 90.0)
           (-20.0 70.0)
  end
  begin
     id 10 
     name rtoes
     direction -1.53469e-011 -4.21728e-011 1   
     length 1.18261   
     axis -90 -7.62852e-016 -20   XYZ
    dof rx
    limits (-90.0 20.0)
  end
  begin
     id 11 
     name lowerback
     direction 0.0242088 0.999437 0.0232389   
     length 2.1561   
     axis 0 0 0   XYZ
    dof rx ry rz
    limits (-20.0 45.0)
           (-30.0 30.0)
           (-30.0 30.0)
  end
  begin
     id 12 
     name upperback
     direction -0.0356893 0.999013 -0.0264323   
     length 2.14431   
     axis 0 0 0   XYZ
    dof rx ry rz
    limits (-20.0 45.0)
           (-30.0 30.0)
           (-30.0 30.0)
  end
  begin
     id 13 
     name thorax
     direction -0.0472163 0.998194 -0.0371284   
     length 2.16169   
     axis 0 0 0   XYZ
    dof rx ry rz
    limits (-20.0 45.0)
           (-30.0 30.0)
           (-30.0 30.0)
  end
  begin
     id 14 
     name lowerneck
     direction 0.00863244 0.999921 0.00911972   
     length 1.58651   
     axis 0 0 0   XYZ
    dof rx ry rz
    limits (-20.0 45.0)
           (-30.0 30.0)
           (-30.0 30.0)
  end
  begin
     id 15 
     name upperneck
     direction 0.149523 0.979068 -0.138086   
     length 1.57486   
     axis 0 0 0   XYZ
    dof rx ry rz
    limits (-20.0 45.0)
           (-30.0 30.0)
           (-30.0 30.0)
  end
  begin
     id 16
     name head
     direction 0.0445219 0.997708 -0.0509576  
     length 1.6019  
     axis 0 0 0   XYZ
    dof rx ry rz
    limits (-20.0 45.0)
           (-30.0 30.0)
           (-30.0 30.0)
  end
  begin
     id 17 
     name lclavicle
     direction 0.911271 0.381667 -0.154644  
     length 3.80848  
     axis 0 0 0   XYZ
    dof ry rz
    limits (-20.0 10.0)
           (0.0 20.0)
  end
  begin
     id 18 
     name lhumerus
     direction 1 -4.49003e-011 2.1308e-027   
     length 5.19069   
     axis 180 -30 -90   XYZ
    dof rx ry rz
    limits (-60.0 90.0)
           (-90.0 90.0)
           (-90.0 90.0)
  end
  begin
     id 19
     name lradius
     direction 1 -4.48914e-011 4.01554e-027   
     length 3.30016   
     axis 180 -30 -90   XYZ
    dof rx
    limits (-10.0 170.0)
  end
  begin
     id 20
     name lwrist
     direction 1 -4.49003e-011 1.1934e-026   
     length 1.65008   
     axis -8.46377e-015 90 90   XYZ
    dof ry
    limits (-180.0 0.0)
 end
  begin
     id 21 
     name lhand
     direction 1 -4.49034e-011 2.38659e-026   
     length 0.707698   
     axis -1.52313e-014 90 90   XYZ
    dof rx rz
    limits (-90.0 90.0)
           (-45.0 45.0)
  end
  begin
     id 22 
     name lfingers
     direction 1 -4.48691e-011 4.77775e-026   
     length 0.570564   
     axis -3.04623e-014 90 90   XYZ
    dof rx
    limits (0.0 90.0)
  end
  begin
     id 23
     name lthumb
     direction 0.707107 -6.34832e-011 0.707107   
     length 0.819219   
     axis -90 45 -1.62303e-014   XYZ
    dof rx rz
    limits (-45.0 45.0)
           (-45.0 45.0)
  end
  begin
     id 24 
     name rclavicle
     direction -0.815579 0.573708 -0.0754329   
     length 3.54371  
     axis 0 0 0   XYZ 
    dof ry rz
    limits (-10.0 20.0)
           (-20.0 0.0)
  end
  begin
     id 25 
     name rhumerus
     direction -1 -4.48956e-011 3.05351e-028  
     length 5.23924   
     axis 180 30 90   XYZ
    dof rx ry rz
    limits (-90.0 60.0)
           (-90.0 90.0)
           (-90.0 90.0)
  end
  begin
     id 26 
     name rradius
     direction -1 -4.49013e-011 3.53849e-027   
     length 3.32953   
     axis 180 30 90   XYZ
    dof rx
    limits (-10.0 170.0)
  end
  begin
     id 27 
     name rwrist
     direction -1 -4.48901e-011 1.19374e-026   
     length 1.66477   
     axis -8.46377e-015 -90 -90   XYZ
    dof ry
    limits (-180.0 0.0)
  end
  begin
     id 28
     name rhand
     direction -1 -4.48877e-011 2.38764e-026   
     length 0.607414   
     axis -1.52313e-014 -90 -90   XYZ
    dof rx rz
    limits (-90.0 90.0)
           (-45.0 45.0)
  end
  begin
     id 29
     name rfingers
     direction -1 -4.48882e-011 4.77521e-026   
     length 0.489712   
     axis -3.04623e-014 -90 -90   XYZ
    dof rx
    limits (0.0 90.0)
  end
  begin
     id 30
     name rthumb
     direction -0.707107 -6.34974e-011 0.707107   
     length 0.703132   
     axis -90 -45 1.62303e-014   XYZ
    dof rx rz
    limits (-45.0 45.0)
           (-45.0 45.0)
  end
:hierarchy
  begin
    root lhipjoint rhipjoint lowerback
    lhipjoint lfemur
    lfemur ltibia
    ltibia lfoot
    lfoot ltoes
    rhipjoint rfemur
    rfemur rtibia
    rtibia rfoot
    rfoot rtoes
    lowerback upperback
    upperback thorax
    thorax lowerneck lclavicle rclavicle
    lowerneck upperneck
    upperneck head
    lclavicle lhumerus
    lhumerus lradius
    lradius lwrist
    lwrist lhand lthumb
    lhand lfingers
    rclavicle rhumerus
    rhumerus rradius
    rradius rwrist
    rwrist rhand rthumb
    rhand rfingers
  end

#!OML:ASF E:\VariousWalksJay\Project 1\Capture day 1\Session 1\Actor2.ASF
:FULLY-SPECIFIED
:DEGREES
491
root 11.221 13.8813 7.71716 -7.18769 -54.614 10.6048
lowerback 5.66844 0.840272 7.51606
upperback -2.26632 1.73753 0.674516
thorax -5.36384 0.603402 -3.68678
lowerneck -18.1237 6.61821 4.41317
upperneck 14.1963 7.98599 -0.824636
head 7.54421 3.97711 -0.0387933
rclavicle -3.3048e-014 7.95139e-015
rhumerus -41.0666 16.3794 -45.1022
rradius 125.799
rwrist -59.7527
rhand -15.1139 -17.5263
rfingers 7.12502
rthumb 11.0549 -47.2152
lclavicle -3.3048e-014 7.95139e-015
lhumerus -63.2235 -25.2408 78.1914
lradius 140.785
lwrist 59.9326
lhand -10.0427 -9.13462
lfingers 7.12502
lthumb 15.9425 20.2293
rfemur -15.5588 -20.266 -20.391
rtibia 65.1204
rfoot -29.0663 -6.15109
rtoes -40.2545
lfemur -35.0181 31.5823 7.28771
ltibia 71.7576
lfoot 5.45422 -0.329289
ltoes -8.77628
492
root 11.207 13.8532 7.71497 -8.26259 -55.0533 11.8944
lowerback 5.90885 1.09747 7.55376
upperback -2.33643 2.12216 0.992425
thorax -5.54058 0.787299 -3.41893
lowerneck -18.2614 6.64155 4.18644
upperneck 14.4505 8.17044 -1.31536
head 7.66816 4.00298 -0.131267
rclavicle 3.24019e-014 -4.77083e-015
rhumerus -38.8111 14.5757 -42.339
rradius 121.761
rwrist -60.2936
rhand -13.6574 -17.5667
rfingers 7.12502
rthumb 12.4594 -47.1753
lclavicle 3.24019e-014 -4.77083e-015
lhumerus -67.1894 -25.5002 84.2741
lradius 144.246
lwrist 60.6338
lhand -9.62764 -9.04495
lfingers 7.12502
lthumb 16.3422 20.2865
rfemur -16.0435 -20.1037 -21.1823
rtibia 65.4627
rfoot -29.1014 -5.93128
rtoes -40.6362
lfemur -35.7655 31.6608 6.61964
ltibia 72.5476
lfoot 5.50666 -0.483295
ltoes -7.76311
493
root 11.1991 13.8257 7.71471 -9.21003 -55.541 12.8734
lowerback 6.08237 1.24264 8.30836
upperback -2.30399 2.39149 1.00161
thorax -5.5515 0.892236 -3.86139
lowerneck -17.8623 6.67324 4.30859
upperneck 14.1803 8.27732 -1.75087
head 7.53917 4.02384 -0.296264
rclavicle 7.28049e-014 2.54444e-014
rhumerus -36.471 12.6936 -40.6722
rradius 117.228
rwrist -60.1726
rhand -12.1344 -17.5379
rfingers 7.12502
rthumb 13.9275 -47.0514
lclavicle 7.28049e-014 2.54444e-014
lhumerus -68.8612 -24.6375 86.5369
lradius 145.807
lwrist 61.2528
lhand 0.539285 -9.18454
lfingers 7.12502
lthumb 26.1068 19.041
rfemur -16.5039 -19.7395 -21.7263
rtibia 65.8298
rfoot -29.1289 -5.71163
rtoes -40.5943
lfemur -36.3305 31.7065 6.20145
ltibia 73.089
lfoot 4.96807 -1.55634
ltoes -8.57361
494
root 11.1948 13.7965 7.72122 -10.5681 -55.9725 14.1297
lowerback 6.49391 1.48462 8.69514
upperback -2.29226 2.79622 1.1859
thorax -5.71772 1.07194 -3.93785
lowerneck -17.3817 6.62626 4.30259
upperneck 14.0549 8.35482 -2.3917
head 7.44821 4.00587 -0.510858
rclavicle 6.9674e-014 -3.81667e-014
rhumerus -34.1149 10.9248 -38.8273
rradius 112.306
rwrist -59.7487
rhand -11.0702 -17.5623
rfingers 7.12502
rthumb 14.9528 -47.0025
lclavicle 6.9674e-014 -3.81667e-014
lhumerus -68.0207 -22.0325 84.8179
lradius 145.21
lwrist 59.7648
lhand -0.768179 -8.13983
lfingers 7.12502
lthumb 24.8544 20.2646
rfemur -16.7815 -19.3777 -22.5438
rtibia 66.211
rfoot -29.1386 -5.51669
rtoes -40.6556
lfemur -36.6265 31.5963 5.61168
ltibia 73.3256
lfoot 4.20468 -2.66578
ltoes -10.1715
495
root 11.1982 13.7748 7.71327 -11.3341 -56.3946 14.5723
lowerback 7.6047 1.66004 9.5039
upperback -2.4499 3.25486 1.47947
thorax -6.44565 1.22794 -4.17733
lowerneck -17.555 6.66243 4.56082
upperneck 14.5583 8.52025 -3.2974
head 7.70453 4.0048 -0.811211
rclavicle 1.04362e-014 -1.59028e-014
rhumerus -31.8682 9.41483 -37.1552
rradius 107.184
rwrist -59.1564
rhand -10.7269 -17.5408
rfingers 7.12502
rthumb 15.2835 -46.9561
lclavicle 1.04362e-014 -1.59028e-014
lhumerus -66.6154 -18.6617 80.9152
lradius 143.1
lwrist 60.1553
lhand 6.48437 -5.96065
lfingers 7.12502
lthumb 31.7847 21.2882
rfemur -17.0587 -18.7968 -22.6878
rtibia 66.6131
rfoot -29.1596 -5.55406
rtoes -40.368
lfemur -36.9547 31.4452 5.46399
ltibia 73.2242
lfoot 3.69255 -3.4169
ltoes -10.6088
496
root 11.1962 13.7488 7.71488 -12.4984 -56.6401 15.687
lowerback 7.95175 1.95813 10.2249
upperback -2.35259 3.75835 1.46885
thorax -6.43142 1.44681 -4.65982
lowerneck -17.9739 6.65472 4.67557
upperneck 15.0912 8.60093 -3.89765
head 7.99151 3.9776 -0.995167
rclavicle -3.6477e-014 5.725e-014
rhumerus -29.6782 7.43506 -35.7532
rradius 101.845
rwrist -57.8589
rhand -11.362 -17.8074
rfingers 7.12502
rthumb 14.6717 -47.2683
lclavicle -3.6477e-014 5.725e-014
lhumerus -64.87 -15.7362 76.1292
lradius 140.762
lwrist 64.8961
lhand 16.7087 -3.94078
lfingers 7.12502
lthumb 41.4575 20.8284
rfemur -17.3324 -18.4347 -23.3405
rtibia 66.9934
rfoot -29.1933 -5.61559
rtoes -40.277
lfemur -37.4492 31.2444 4.65354
ltibia 72.8666
lfoot 2.93703 -3.61503
ltoes -10.906
497
root 11.1915 13.7256 7.71561 -13.4539 -56.9796 16.532
lowerback 8.88251 2.29511 10.6836
upperback -2.6577 4.41784 1.77545
thorax -7.19403 1.69737 -4.72776
lowerneck -17.7812 6.53291 4.26954
upperneck 15.5785 8.62894 -4.17492
head 8.11827 3.93621 -1.0186
rclavicle -3.29983e-014 9.54166e-014
rhumerus -27.8108 6.23554 -34.3457
rradius 96.5197
rwrist -56.4371
rhand -13.8935 -18.3562
rfingers 7.12502
rthumb 12.2318 -47.9785
lclavicle -3.29983e-014 9.54166e-014
lhumerus -64.486 -13.6229 72.8058
lradius 139.041
lwrist 70.9647
lhand 22.6418 -0.0488105
lfingers 7.12502
lthumb 46.9877 22.6228
rfemur -17.6439 -17.8938 -23.7142
rtibia 67.3608
rfoot -29.2932 -5.78499
rtoes -40.1112
lfemur -37.8566 31.196 3.99482
ltibia 72.2744
lfoot 2.01968 -3.36463
ltoes -11.6486
498
root 11.186 13.6999 7.71432 -14.0088 -57.1787 17.2947
lowerback 8.99234 2.6128 11.1409
upperback -2.63426 4.91362 1.96048
thorax -7.13882 1.92325 -4.84862
lowerneck -18.123 6.51812 4.14934
upperneck 15.7405 8.68934 -4.43369
head 8.24209 3.92248 -1.06536
rclavicle -1.96797e-014 1.59028e-014
rhumerus -25.6152 4.61035 -33.5046
rradius 91.3681
rwrist -54.9409
rhand -17.4799 -19.8744
rfingers 7.12502
rthumb 8.77229 -49.6721
lclavicle -1.96797e-014 1.59028e-014
lhumerus -63.4027 -11.6736 68.9672
lradius 137.144
lwrist 75.6725
lhand 27.9956 5.27671
lfingers 7.12502
lthumb 51.8962 25.4438
rfemur -18.1267 -17.6193 -24.0175
rtibia 67.733
rfoot -29.4056 -6.07606
rtoes -40.0894
lfemur -38.7321 31.1877 3.07859
ltibia 71.48
lfoot 1.01501 -2.69677
ltoes -12.4103
499
root 11.1806 13.6737 7.71447 -14.3878 -57.3607 17.8907
lowerback 9.3277 2.77377 11.7648
upperback -2.87304 5.28073 2.17354
thorax -7.50959 2.04089 -5.03936
lowerneck -17.7202 6.52713 4.01228
upperneck 15.5687 8.81578 -4.78514
head 8.13211 3.94893 -1.15666
rclavicle -1.11717e-013 3.18055e-015
rhumerus -23.6695 3.79657 -32.9698
rradius 86.9194
rwrist -53.748
rhand -22.9015 -22.7235
rfingers 7.12502
rthumb 3.53821 -52.6739
lclavicle -1.11717e-013 3.18055e-015
lhumerus -63.2885 -10.514 66.3822
lradius 135.043
lwrist 75.4556
lhand 32.5155 8.30697
lfingers 7.12502
lthumb 55.9531 25.733
rfemur -18.5833 -17.3923 -24.2473
rtibia 68.0882
rfoot -29.5497 -6.23721
rtoes -39.9959
lfemur -39.6152 31.1818 2.20631
ltibia 70.4841
lfoot -0.0645973 -1.84988
ltoes -13.1067
500
root 11.1766 13.6423 7.71571 -14.4971 -57.4625 18.242
lowerback 9.42276 2.85742 12.6601
upperback -2.9304 5.51455 2.12195
thorax -7.51451 2.10467 -5.62023
lowerneck -17.7917 6.61356 4.49579
upperneck 15.3419 8.86761 -5.15619
head 8.11221 3.96726 -1.34846
rclavicle -4.6118e-014 5.725e-014
rhumerus -22.1 2.89436 -33.263
rradius 83.5466
rwrist -53.6573
rhand -30.0088 -27.1701
rfingers 7.12502
rthumb -3.326 -57.1239
lclavicle -4.6118e-014 5.725e-014
lhumerus -62.6316 -10.1132 64.0585
lradius 132.452
lwrist 71.8267
lhand 37.1594 7.9547
lfingers 7.12502
lthumb 60.0017 21.7332
rfemur -19.0211 -17.3067 -24.3947
rtibia 68.465
rfoot -29.7028 -6.32719
rtoes -39.9531
lfemur -40.6257 31.1853 1.36741
ltibia 69.3302
lfoot -1.12127 -0.949821
ltoes -13.8473
